<mxfile host="app.diagrams.net" modified="2024-03-04T21:13:43.046Z" agent="Mozilla/5.0 (Windows NT 10.0; Win64; x64) AppleWebKit/537.36 (KHTML, like Gecko) Chrome/122.0.0.0 Safari/537.36" etag="LXBh5Xbca3LEw_3uAjGj" version="24.0.0" type="github">
  <diagram name="Halaman-1" id="EHIgtqP8dFPI097pj8Ck">
    <mxGraphModel dx="1518" dy="614" grid="1" gridSize="10" guides="1" tooltips="1" connect="1" arrows="1" fold="1" page="1" pageScale="1" pageWidth="827" pageHeight="1169" math="0" shadow="0">
      <root>
        <mxCell id="0" />
        <mxCell id="1" parent="0" />
        <mxCell id="98FvvaIvpQ1tqhCaDw4m-32" style="edgeStyle=orthogonalEdgeStyle;rounded=0;orthogonalLoop=1;jettySize=auto;html=1;exitX=1;exitY=0.5;exitDx=0;exitDy=0;" edge="1" parent="1" source="98FvvaIvpQ1tqhCaDw4m-2" target="98FvvaIvpQ1tqhCaDw4m-9">
          <mxGeometry relative="1" as="geometry" />
        </mxCell>
        <mxCell id="98FvvaIvpQ1tqhCaDw4m-36" style="edgeStyle=orthogonalEdgeStyle;rounded=0;orthogonalLoop=1;jettySize=auto;html=1;exitX=0.5;exitY=1;exitDx=0;exitDy=0;entryX=0.5;entryY=0;entryDx=0;entryDy=0;" edge="1" parent="1" source="98FvvaIvpQ1tqhCaDw4m-2">
          <mxGeometry relative="1" as="geometry">
            <mxPoint x="123" y="450" as="targetPoint" />
          </mxGeometry>
        </mxCell>
        <mxCell id="98FvvaIvpQ1tqhCaDw4m-2" value="&lt;b&gt;Normalized difference vegetation index (NDVI)&lt;/b&gt;" style="shape=parallelogram;perimeter=parallelogramPerimeter;whiteSpace=wrap;html=1;fixedSize=1;" vertex="1" parent="1">
          <mxGeometry x="33" y="230" width="180" height="60" as="geometry" />
        </mxCell>
        <mxCell id="98FvvaIvpQ1tqhCaDw4m-42" style="edgeStyle=orthogonalEdgeStyle;rounded=0;orthogonalLoop=1;jettySize=auto;html=1;exitX=0.5;exitY=1;exitDx=0;exitDy=0;entryX=0.5;entryY=0;entryDx=0;entryDy=0;" edge="1" parent="1" source="98FvvaIvpQ1tqhCaDw4m-9" target="98FvvaIvpQ1tqhCaDw4m-39">
          <mxGeometry relative="1" as="geometry" />
        </mxCell>
        <mxCell id="98FvvaIvpQ1tqhCaDw4m-9" value="&lt;b&gt;Leaf Area Index (LAI)&lt;/b&gt;" style="shape=parallelogram;perimeter=parallelogramPerimeter;whiteSpace=wrap;html=1;fixedSize=1;" vertex="1" parent="1">
          <mxGeometry x="313" y="230" width="180" height="60" as="geometry" />
        </mxCell>
        <mxCell id="98FvvaIvpQ1tqhCaDw4m-43" style="edgeStyle=orthogonalEdgeStyle;rounded=0;orthogonalLoop=1;jettySize=auto;html=1;exitX=0.5;exitY=1;exitDx=0;exitDy=0;entryX=0.5;entryY=0;entryDx=0;entryDy=0;" edge="1" parent="1" source="98FvvaIvpQ1tqhCaDw4m-13" target="98FvvaIvpQ1tqhCaDw4m-41">
          <mxGeometry relative="1" as="geometry" />
        </mxCell>
        <mxCell id="98FvvaIvpQ1tqhCaDw4m-13" value="&lt;b&gt;Normalized difference water index (NDWI)&lt;/b&gt;" style="shape=parallelogram;perimeter=parallelogramPerimeter;whiteSpace=wrap;html=1;fixedSize=1;" vertex="1" parent="1">
          <mxGeometry x="613" y="230" width="180" height="60" as="geometry" />
        </mxCell>
        <mxCell id="98FvvaIvpQ1tqhCaDw4m-30" value="&lt;span class=&quot;fontstyle0&quot;&gt;LAI &lt;/span&gt;&lt;span class=&quot;fontstyle2&quot;&gt;= &lt;/span&gt;&lt;span class=&quot;fontstyle0&quot;&gt;0&lt;/span&gt;&lt;span class=&quot;fontstyle3&quot;&gt;.&lt;/span&gt;&lt;span class=&quot;fontstyle0&quot;&gt;57 &lt;/span&gt;&lt;span class=&quot;fontstyle2&quot;&gt;× &lt;/span&gt;&lt;span class=&quot;fontstyle0&quot;&gt;exp&lt;/span&gt;&lt;span class=&quot;fontstyle2&quot;&gt;(&lt;/span&gt;&lt;span class=&quot;fontstyle0&quot;&gt;2&lt;/span&gt;&lt;span class=&quot;fontstyle3&quot;&gt;.&lt;/span&gt;&lt;span class=&quot;fontstyle0&quot;&gt;33 &lt;/span&gt;&lt;span class=&quot;fontstyle2&quot;&gt;× &lt;/span&gt;&lt;span class=&quot;fontstyle0&quot;&gt;NDVI&lt;/span&gt;&lt;span class=&quot;fontstyle2&quot;&gt;)&lt;/span&gt;" style="text;html=1;align=center;verticalAlign=middle;whiteSpace=wrap;rounded=0;" vertex="1" parent="1">
          <mxGeometry x="213" y="230" width="110" height="30" as="geometry" />
        </mxCell>
        <mxCell id="98FvvaIvpQ1tqhCaDw4m-26" value="&lt;span class=&quot;fontstyle0&quot;&gt;- photosynthetic capacity and energy absorption of a plant canopy.&lt;/span&gt;&lt;div&gt;&lt;div&gt;&lt;span class=&quot;fontstyle0&quot;&gt;&lt;span class=&quot;fontstyle0&quot;&gt;- Time-series NDVI datasets can be used to monitor changes in vegetation growth (growing, flowering, harvesting, and senescence) during the season&lt;/span&gt;&lt;br style=&quot;font-variant-numeric: normal; font-variant-east-asian: normal; font-variant-alternates: normal; font-variant-position: normal; line-height: normal; text-align: -webkit-auto; text-size-adjust: auto;&quot;&gt;&lt;/span&gt;&lt;/div&gt;&lt;/div&gt;" style="text;html=1;align=left;verticalAlign=middle;whiteSpace=wrap;rounded=0;" vertex="1" parent="1">
          <mxGeometry x="15" y="300" width="180" height="130" as="geometry" />
        </mxCell>
        <mxCell id="98FvvaIvpQ1tqhCaDw4m-45" style="edgeStyle=orthogonalEdgeStyle;rounded=0;orthogonalLoop=1;jettySize=auto;html=1;exitX=0.5;exitY=1;exitDx=0;exitDy=0;entryX=0.5;entryY=0;entryDx=0;entryDy=0;" edge="1" parent="1" target="98FvvaIvpQ1tqhCaDw4m-44">
          <mxGeometry relative="1" as="geometry">
            <mxPoint x="123" y="530" as="sourcePoint" />
          </mxGeometry>
        </mxCell>
        <mxCell id="98FvvaIvpQ1tqhCaDw4m-35" value="Average Moving&lt;div&gt;Exponential Smoothing&lt;/div&gt;" style="rounded=0;whiteSpace=wrap;html=1;" vertex="1" parent="1">
          <mxGeometry x="15" y="450" width="200" height="80" as="geometry" />
        </mxCell>
        <mxCell id="98FvvaIvpQ1tqhCaDw4m-33" value="&lt;div&gt;&lt;div&gt;&lt;span class=&quot;fontstyle0&quot;&gt;&lt;span class=&quot;fontstyle0&quot;&gt;NDWI is applied to monitor changes in the water content of leaves using spectral information from the near-infrared and shortwave infrared bands&lt;/span&gt;&lt;br style=&quot;font-variant-numeric: normal; font-variant-east-asian: normal; font-variant-alternates: normal; font-variant-position: normal; line-height: normal; text-align: -webkit-auto; text-size-adjust: auto;&quot;&gt;&lt;/span&gt;&lt;/div&gt;&lt;/div&gt;" style="text;html=1;align=left;verticalAlign=middle;whiteSpace=wrap;rounded=0;" vertex="1" parent="1">
          <mxGeometry x="613" y="300" width="180" height="80" as="geometry" />
        </mxCell>
        <mxCell id="98FvvaIvpQ1tqhCaDw4m-28" value="&lt;div&gt;&lt;div&gt;&lt;span class=&quot;fontstyle0&quot;&gt;&lt;span class=&quot;fontstyle0&quot;&gt;refers to the ratio of the leaf area to the corresponding ground area in broadleaf canopies&amp;nbsp;&lt;/span&gt; &lt;br/&gt;&lt;br style=&quot;font-variant-numeric: normal; font-variant-east-asian: normal; font-variant-alternates: normal; font-variant-position: normal; line-height: normal; text-align: -webkit-auto; text-size-adjust: auto;&quot;&gt;&lt;/span&gt;&lt;/div&gt;&lt;/div&gt;" style="text;html=1;align=left;verticalAlign=middle;whiteSpace=wrap;rounded=0;" vertex="1" parent="1">
          <mxGeometry x="313" y="300" width="180" height="70" as="geometry" />
        </mxCell>
        <mxCell id="98FvvaIvpQ1tqhCaDw4m-48" style="edgeStyle=orthogonalEdgeStyle;rounded=0;orthogonalLoop=1;jettySize=auto;html=1;exitX=0.5;exitY=1;exitDx=0;exitDy=0;entryX=0.5;entryY=0;entryDx=0;entryDy=0;" edge="1" parent="1" source="98FvvaIvpQ1tqhCaDw4m-39" target="98FvvaIvpQ1tqhCaDw4m-46">
          <mxGeometry relative="1" as="geometry" />
        </mxCell>
        <mxCell id="98FvvaIvpQ1tqhCaDw4m-39" value="Average Moving&lt;div&gt;Exponential Smoothing&lt;/div&gt;" style="rounded=0;whiteSpace=wrap;html=1;" vertex="1" parent="1">
          <mxGeometry x="303" y="450" width="200" height="80" as="geometry" />
        </mxCell>
        <mxCell id="98FvvaIvpQ1tqhCaDw4m-49" style="edgeStyle=orthogonalEdgeStyle;rounded=0;orthogonalLoop=1;jettySize=auto;html=1;exitX=0.5;exitY=1;exitDx=0;exitDy=0;entryX=0.5;entryY=0;entryDx=0;entryDy=0;" edge="1" parent="1" source="98FvvaIvpQ1tqhCaDw4m-41" target="98FvvaIvpQ1tqhCaDw4m-47">
          <mxGeometry relative="1" as="geometry" />
        </mxCell>
        <mxCell id="98FvvaIvpQ1tqhCaDw4m-41" value="Average Moving&lt;div&gt;Exponential Smoothing&lt;/div&gt;" style="rounded=0;whiteSpace=wrap;html=1;" vertex="1" parent="1">
          <mxGeometry x="603" y="450" width="200" height="80" as="geometry" />
        </mxCell>
        <mxCell id="98FvvaIvpQ1tqhCaDw4m-52" style="edgeStyle=orthogonalEdgeStyle;rounded=0;orthogonalLoop=1;jettySize=auto;html=1;exitX=0.5;exitY=1;exitDx=0;exitDy=0;entryX=0;entryY=0.5;entryDx=0;entryDy=0;" edge="1" parent="1" source="98FvvaIvpQ1tqhCaDw4m-44" target="98FvvaIvpQ1tqhCaDw4m-50">
          <mxGeometry relative="1" as="geometry" />
        </mxCell>
        <mxCell id="98FvvaIvpQ1tqhCaDw4m-44" value="Mean Score of NDVI" style="shape=parallelogram;perimeter=parallelogramPerimeter;whiteSpace=wrap;html=1;fixedSize=1;" vertex="1" parent="1">
          <mxGeometry x="33" y="590" width="180" height="60" as="geometry" />
        </mxCell>
        <mxCell id="98FvvaIvpQ1tqhCaDw4m-53" style="edgeStyle=orthogonalEdgeStyle;rounded=0;orthogonalLoop=1;jettySize=auto;html=1;exitX=0.5;exitY=1;exitDx=0;exitDy=0;entryX=0.5;entryY=0;entryDx=0;entryDy=0;" edge="1" parent="1" source="98FvvaIvpQ1tqhCaDw4m-46" target="98FvvaIvpQ1tqhCaDw4m-50">
          <mxGeometry relative="1" as="geometry" />
        </mxCell>
        <mxCell id="98FvvaIvpQ1tqhCaDw4m-46" value="Mean Score of LAI" style="shape=parallelogram;perimeter=parallelogramPerimeter;whiteSpace=wrap;html=1;fixedSize=1;" vertex="1" parent="1">
          <mxGeometry x="313" y="590" width="180" height="60" as="geometry" />
        </mxCell>
        <mxCell id="98FvvaIvpQ1tqhCaDw4m-54" style="edgeStyle=orthogonalEdgeStyle;rounded=0;orthogonalLoop=1;jettySize=auto;html=1;exitX=0.5;exitY=1;exitDx=0;exitDy=0;entryX=1;entryY=0.5;entryDx=0;entryDy=0;" edge="1" parent="1" source="98FvvaIvpQ1tqhCaDw4m-47" target="98FvvaIvpQ1tqhCaDw4m-50">
          <mxGeometry relative="1" as="geometry" />
        </mxCell>
        <mxCell id="98FvvaIvpQ1tqhCaDw4m-47" value="Mean Score of NDWI" style="shape=parallelogram;perimeter=parallelogramPerimeter;whiteSpace=wrap;html=1;fixedSize=1;" vertex="1" parent="1">
          <mxGeometry x="613" y="590" width="180" height="60" as="geometry" />
        </mxCell>
        <mxCell id="98FvvaIvpQ1tqhCaDw4m-55" style="edgeStyle=orthogonalEdgeStyle;rounded=0;orthogonalLoop=1;jettySize=auto;html=1;exitX=0.5;exitY=1;exitDx=0;exitDy=0;" edge="1" parent="1" source="98FvvaIvpQ1tqhCaDw4m-50">
          <mxGeometry relative="1" as="geometry">
            <mxPoint x="403" y="870" as="targetPoint" />
          </mxGeometry>
        </mxCell>
        <mxCell id="98FvvaIvpQ1tqhCaDw4m-50" value="Integrating into tabular data" style="rounded=0;whiteSpace=wrap;html=1;" vertex="1" parent="1">
          <mxGeometry x="303" y="720" width="200" height="80" as="geometry" />
        </mxCell>
        <mxCell id="98FvvaIvpQ1tqhCaDw4m-76" style="edgeStyle=orthogonalEdgeStyle;rounded=0;orthogonalLoop=1;jettySize=auto;html=1;exitX=0.5;exitY=1;exitDx=0;exitDy=0;entryX=0.5;entryY=0;entryDx=0;entryDy=0;" edge="1" parent="1" source="98FvvaIvpQ1tqhCaDw4m-51" target="98FvvaIvpQ1tqhCaDw4m-67">
          <mxGeometry relative="1" as="geometry" />
        </mxCell>
        <mxCell id="98FvvaIvpQ1tqhCaDw4m-51" value="&amp;nbsp;Crop yield (from field survey) as label data" style="shape=parallelogram;perimeter=parallelogramPerimeter;whiteSpace=wrap;html=1;fixedSize=1;" vertex="1" parent="1">
          <mxGeometry x="593" y="870" width="180" height="60" as="geometry" />
        </mxCell>
        <mxCell id="98FvvaIvpQ1tqhCaDw4m-70" style="edgeStyle=orthogonalEdgeStyle;rounded=0;orthogonalLoop=1;jettySize=auto;html=1;exitX=0.5;exitY=1;exitDx=0;exitDy=0;entryX=0.5;entryY=0;entryDx=0;entryDy=0;" edge="1" parent="1" source="98FvvaIvpQ1tqhCaDw4m-56" target="98FvvaIvpQ1tqhCaDw4m-67">
          <mxGeometry relative="1" as="geometry" />
        </mxCell>
        <mxCell id="98FvvaIvpQ1tqhCaDw4m-56" value="Mean Score of NDVI, LAI, NDWI in table" style="shape=parallelogram;perimeter=parallelogramPerimeter;whiteSpace=wrap;html=1;fixedSize=1;" vertex="1" parent="1">
          <mxGeometry x="313" y="870" width="180" height="60" as="geometry" />
        </mxCell>
        <mxCell id="98FvvaIvpQ1tqhCaDw4m-66" style="edgeStyle=orthogonalEdgeStyle;rounded=0;orthogonalLoop=1;jettySize=auto;html=1;exitX=0.5;exitY=1;exitDx=0;exitDy=0;entryX=0.5;entryY=0;entryDx=0;entryDy=0;" edge="1" parent="1" source="98FvvaIvpQ1tqhCaDw4m-57" target="98FvvaIvpQ1tqhCaDw4m-63">
          <mxGeometry relative="1" as="geometry" />
        </mxCell>
        <mxCell id="98FvvaIvpQ1tqhCaDw4m-57" value="Linear Regression" style="rounded=0;whiteSpace=wrap;html=1;" vertex="1" parent="1">
          <mxGeometry x="123" y="1210" width="200" height="80" as="geometry" />
        </mxCell>
        <mxCell id="98FvvaIvpQ1tqhCaDw4m-65" style="edgeStyle=orthogonalEdgeStyle;rounded=0;orthogonalLoop=1;jettySize=auto;html=1;exitX=0.5;exitY=1;exitDx=0;exitDy=0;entryX=0.5;entryY=0;entryDx=0;entryDy=0;" edge="1" parent="1" source="98FvvaIvpQ1tqhCaDw4m-58" target="98FvvaIvpQ1tqhCaDw4m-64">
          <mxGeometry relative="1" as="geometry" />
        </mxCell>
        <mxCell id="98FvvaIvpQ1tqhCaDw4m-58" value="Artificial Neural Network (ANN)" style="rounded=0;whiteSpace=wrap;html=1;" vertex="1" parent="1">
          <mxGeometry x="403" y="1210" width="200" height="80" as="geometry" />
        </mxCell>
        <mxCell id="98FvvaIvpQ1tqhCaDw4m-82" style="edgeStyle=orthogonalEdgeStyle;rounded=0;orthogonalLoop=1;jettySize=auto;html=1;exitX=0.5;exitY=1;exitDx=0;exitDy=0;entryX=0.5;entryY=0;entryDx=0;entryDy=0;" edge="1" parent="1" source="98FvvaIvpQ1tqhCaDw4m-63" target="98FvvaIvpQ1tqhCaDw4m-81">
          <mxGeometry relative="1" as="geometry" />
        </mxCell>
        <mxCell id="98FvvaIvpQ1tqhCaDw4m-63" value="Crop yield estimator 1 (Linear model)" style="shape=parallelogram;perimeter=parallelogramPerimeter;whiteSpace=wrap;html=1;fixedSize=1;" vertex="1" parent="1">
          <mxGeometry x="133" y="1370" width="180" height="60" as="geometry" />
        </mxCell>
        <mxCell id="98FvvaIvpQ1tqhCaDw4m-83" style="edgeStyle=orthogonalEdgeStyle;rounded=0;orthogonalLoop=1;jettySize=auto;html=1;exitX=0.5;exitY=1;exitDx=0;exitDy=0;entryX=0.5;entryY=0;entryDx=0;entryDy=0;" edge="1" parent="1" source="98FvvaIvpQ1tqhCaDw4m-64" target="98FvvaIvpQ1tqhCaDw4m-81">
          <mxGeometry relative="1" as="geometry">
            <mxPoint x="366" y="1500" as="targetPoint" />
          </mxGeometry>
        </mxCell>
        <mxCell id="98FvvaIvpQ1tqhCaDw4m-64" value="Crop yield estimator 2 (ANN)" style="shape=parallelogram;perimeter=parallelogramPerimeter;whiteSpace=wrap;html=1;fixedSize=1;" vertex="1" parent="1">
          <mxGeometry x="413" y="1370" width="180" height="60" as="geometry" />
        </mxCell>
        <mxCell id="98FvvaIvpQ1tqhCaDw4m-84" style="edgeStyle=orthogonalEdgeStyle;rounded=0;orthogonalLoop=1;jettySize=auto;html=1;exitX=0.5;exitY=1;exitDx=0;exitDy=0;entryX=0.5;entryY=0;entryDx=0;entryDy=0;" edge="1" parent="1" source="98FvvaIvpQ1tqhCaDw4m-67" target="98FvvaIvpQ1tqhCaDw4m-77">
          <mxGeometry relative="1" as="geometry" />
        </mxCell>
        <mxCell id="98FvvaIvpQ1tqhCaDw4m-85" style="edgeStyle=orthogonalEdgeStyle;rounded=0;orthogonalLoop=1;jettySize=auto;html=1;exitX=0.5;exitY=1;exitDx=0;exitDy=0;entryX=0.5;entryY=0;entryDx=0;entryDy=0;" edge="1" parent="1" source="98FvvaIvpQ1tqhCaDw4m-67" target="98FvvaIvpQ1tqhCaDw4m-78">
          <mxGeometry relative="1" as="geometry" />
        </mxCell>
        <mxCell id="98FvvaIvpQ1tqhCaDw4m-67" value="Data split" style="rounded=0;whiteSpace=wrap;html=1;" vertex="1" parent="1">
          <mxGeometry x="306" y="980" width="490" height="80" as="geometry" />
        </mxCell>
        <mxCell id="98FvvaIvpQ1tqhCaDw4m-80" style="edgeStyle=orthogonalEdgeStyle;rounded=0;orthogonalLoop=1;jettySize=auto;html=1;exitX=0.5;exitY=1;exitDx=0;exitDy=0;entryX=0.5;entryY=0;entryDx=0;entryDy=0;" edge="1" parent="1" source="98FvvaIvpQ1tqhCaDw4m-77" target="98FvvaIvpQ1tqhCaDw4m-58">
          <mxGeometry relative="1" as="geometry" />
        </mxCell>
        <mxCell id="98FvvaIvpQ1tqhCaDw4m-77" value="Data Training" style="shape=parallelogram;perimeter=parallelogramPerimeter;whiteSpace=wrap;html=1;fixedSize=1;" vertex="1" parent="1">
          <mxGeometry x="313" y="1100" width="180" height="60" as="geometry" />
        </mxCell>
        <mxCell id="98FvvaIvpQ1tqhCaDw4m-86" style="edgeStyle=orthogonalEdgeStyle;rounded=0;orthogonalLoop=1;jettySize=auto;html=1;exitX=0.5;exitY=1;exitDx=0;exitDy=0;entryX=1;entryY=0.5;entryDx=0;entryDy=0;" edge="1" parent="1" source="98FvvaIvpQ1tqhCaDw4m-78" target="98FvvaIvpQ1tqhCaDw4m-81">
          <mxGeometry relative="1" as="geometry" />
        </mxCell>
        <mxCell id="98FvvaIvpQ1tqhCaDw4m-78" value="Data Testing" style="shape=parallelogram;perimeter=parallelogramPerimeter;whiteSpace=wrap;html=1;fixedSize=1;" vertex="1" parent="1">
          <mxGeometry x="616" y="1100" width="180" height="60" as="geometry" />
        </mxCell>
        <mxCell id="98FvvaIvpQ1tqhCaDw4m-79" style="edgeStyle=orthogonalEdgeStyle;rounded=0;orthogonalLoop=1;jettySize=auto;html=1;exitX=0.5;exitY=1;exitDx=0;exitDy=0;entryX=0.461;entryY=0.009;entryDx=0;entryDy=0;entryPerimeter=0;" edge="1" parent="1" source="98FvvaIvpQ1tqhCaDw4m-77" target="98FvvaIvpQ1tqhCaDw4m-57">
          <mxGeometry relative="1" as="geometry" />
        </mxCell>
        <mxCell id="98FvvaIvpQ1tqhCaDw4m-88" style="edgeStyle=orthogonalEdgeStyle;rounded=0;orthogonalLoop=1;jettySize=auto;html=1;exitX=0.5;exitY=1;exitDx=0;exitDy=0;entryX=0.5;entryY=0;entryDx=0;entryDy=0;" edge="1" parent="1" source="98FvvaIvpQ1tqhCaDw4m-81" target="98FvvaIvpQ1tqhCaDw4m-87">
          <mxGeometry relative="1" as="geometry" />
        </mxCell>
        <mxCell id="98FvvaIvpQ1tqhCaDw4m-81" value="MSE and R2" style="rounded=0;whiteSpace=wrap;html=1;" vertex="1" parent="1">
          <mxGeometry x="266" y="1560" width="200" height="80" as="geometry" />
        </mxCell>
        <mxCell id="98FvvaIvpQ1tqhCaDw4m-92" style="edgeStyle=orthogonalEdgeStyle;rounded=0;orthogonalLoop=1;jettySize=auto;html=1;exitX=0.5;exitY=1;exitDx=0;exitDy=0;entryX=0.5;entryY=0;entryDx=0;entryDy=0;" edge="1" parent="1" source="98FvvaIvpQ1tqhCaDw4m-87" target="98FvvaIvpQ1tqhCaDw4m-91">
          <mxGeometry relative="1" as="geometry" />
        </mxCell>
        <mxCell id="98FvvaIvpQ1tqhCaDw4m-87" value="Model Performance" style="shape=parallelogram;perimeter=parallelogramPerimeter;whiteSpace=wrap;html=1;fixedSize=1;" vertex="1" parent="1">
          <mxGeometry x="276" y="1710" width="180" height="60" as="geometry" />
        </mxCell>
        <mxCell id="98FvvaIvpQ1tqhCaDw4m-89" value="&lt;font style=&quot;font-size: 24px;&quot;&gt;2021 - Prediction of grape yields from time-series vegetation indices using satellite remote sensing and a machine-learning approach&lt;/font&gt;" style="text;html=1;align=center;verticalAlign=middle;whiteSpace=wrap;rounded=0;fontStyle=1" vertex="1" parent="1">
          <mxGeometry x="13" y="30" width="790" height="60" as="geometry" />
        </mxCell>
        <mxCell id="98FvvaIvpQ1tqhCaDw4m-90" value="&lt;font style=&quot;font-size: 18px;&quot;&gt;The algorithm is computed by each pixel in 31 sample fields for 3 years&lt;/font&gt;" style="text;html=1;align=center;verticalAlign=middle;whiteSpace=wrap;rounded=0;" vertex="1" parent="1">
          <mxGeometry x="187" y="140" width="432" height="30" as="geometry" />
        </mxCell>
        <mxCell id="98FvvaIvpQ1tqhCaDw4m-91" value="&lt;font style=&quot;font-size: 14px;&quot;&gt;Using the best model to predict yield crop&lt;/font&gt;" style="rounded=0;whiteSpace=wrap;html=1;fontStyle=1" vertex="1" parent="1">
          <mxGeometry x="266" y="1840" width="200" height="80" as="geometry" />
        </mxCell>
        <mxCell id="98FvvaIvpQ1tqhCaDw4m-93" value="&lt;b&gt;Findings:&lt;/b&gt;&lt;br&gt;&lt;div&gt;1. The crop discussed in this paper is grape. What kind of crop that we want to predict? is it only one or multiple crop?&lt;br&gt;2. If we want to do multiple crop estimation, how can we do it? The object (crop and the field) in this paper is identified manually. Do we have to do image classification first before creating the estimator model?&lt;br&gt;&lt;/div&gt;&lt;div&gt;&lt;br&gt;&lt;/div&gt;" style="text;html=1;align=left;verticalAlign=middle;whiteSpace=wrap;rounded=0;" vertex="1" parent="1">
          <mxGeometry x="18" y="1970" width="790" height="110" as="geometry" />
        </mxCell>
      </root>
    </mxGraphModel>
  </diagram>
</mxfile>
